<svg xmlns="http://www.w3.org/2000/svg" xmlns:xlink="http://www.w3.org/1999/xlink">
  <defs>
    <!-- Symbol definition -->
    <symbol id="icon-folder-plus" viewbox="0 0 32 32">
      <title>folder-plus</title>
      <path d="M18 8l-4-4h-14v26h32v-22h-14zM22 22h-4v4h-4v-4h-4v-4h4v-4h4v4h4v4z"></path>
    </symbol>
    <symbol id="icon-folder-minus" viewbox="0 0 32 32">
      <title>folder-minus</title>
      <path d="M18 8l-4-4h-14v26h32v-22h-14zM22 22h-12v-4h12v4z"></path>
    </symbol>
    <symbol id="icon-play3" viewbox="0 0 32 32">
      <title>play3</title>
      <path fill="#fff" d="M6 4l20 12-20 12z"></path>
    </symbol>
    <symbol id="icon-settings" viewBox="0 0 932.179 932.179">
      <path
        fill="#333"
        d="M61.2,341.538c4.9,16.8,11.7,33,20.3,48.2l-24.5,30.9c-8,10.1-7.1,24.5,1.9,33.6l42.2,42.2c9.1,9.1,23.5,9.899,33.6,1.899
    		l30.7-24.3c15.8,9.101,32.6,16.2,50.1,21.2l4.6,39.5c1.5,12.8,12.3,22.4,25.1,22.4h59.7c12.8,0,23.6-9.601,25.1-22.4l4.4-38.1
    		c18.8-4.9,36.8-12.2,53.7-21.7l29.7,23.5c10.1,8,24.5,7.1,33.6-1.9l42.2-42.2c9.1-9.1,9.9-23.5,1.9-33.6l-23.1-29.3
    		c9.6-16.601,17.1-34.3,22.1-52.8l35.6-4.1c12.801-1.5,22.4-12.3,22.4-25.1v-59.7c0-12.8-9.6-23.6-22.4-25.1l-35.1-4.1
    		c-4.801-18.3-12-35.8-21.199-52.2l21.6-27.3c8-10.1,7.1-24.5-1.9-33.6l-42.1-42.1c-9.1-9.1-23.5-9.9-33.6-1.9l-26.5,21
    		c-17.2-10.1-35.601-17.8-54.9-23l-4-34.3c-1.5-12.8-12.3-22.4-25.1-22.4h-59.7c-12.8,0-23.6,9.6-25.1,22.4l-4,34.3
    		c-19.8,5.3-38.7,13.3-56.3,23.8l-27.5-21.8c-10.1-8-24.5-7.1-33.6,1.9l-42.2,42.2c-9.1,9.1-9.9,23.5-1.9,33.6l23,29.1
    		c-9.2,16.6-16.2,34.3-20.8,52.7l-36.8,4.2c-12.8,1.5-22.4,12.3-22.4,25.1v59.7c0,12.8,9.6,23.6,22.4,25.1L61.2,341.538z
    		 M277.5,180.038c54.4,0,98.7,44.3,98.7,98.7s-44.3,98.7-98.7,98.7c-54.399,0-98.7-44.3-98.7-98.7S223.1,180.038,277.5,180.038z"/>
      <path
        fill="#555"
        d="M867.699,356.238l-31.5-26.6c-9.699-8.2-24-7.8-33.199,0.9l-17.4,16.3c-14.699-7.1-30.299-12.1-46.4-15l-4.898-24
    		c-2.5-12.4-14-21-26.602-20l-41.1,3.5c-12.6,1.1-22.5,11.4-22.9,24.1l-0.799,24.4c-15.801,5.7-30.701,13.5-44.301,23.3
    		l-20.799-13.8c-10.602-7-24.701-5-32.9,4.7l-26.6,31.7c-8.201,9.7-7.801,24,0.898,33.2l18.201,19.399
    		c-6.301,14.2-10.801,29.101-13.4,44.4l-26,5.3c-12.4,2.5-21,14-20,26.601l3.5,41.1c1.1,12.6,11.4,22.5,24.1,22.9l28.1,0.899
    		c5.102,13.4,11.801,26.101,19.9,38l-15.699,23.7c-7,10.6-5,24.7,4.699,32.9l31.5,26.6c9.701,8.2,24,7.8,33.201-0.9l20.6-19.3
    		c13.5,6.3,27.699,11,42.299,13.8l5.701,28.2c2.5,12.4,14,21,26.6,20l41.1-3.5c12.6-1.1,22.5-11.399,22.9-24.1l0.9-27.601
    		c15-5.3,29.199-12.5,42.299-21.399l22.701,15c10.6,7,24.699,5,32.9-4.7l26.6-31.5c8.199-9.7,7.799-24-0.9-33.2l-18.301-19.399
    		c6.701-14.2,11.602-29.2,14.4-44.601l25-5.1c12.4-2.5,21-14,20-26.601l-3.5-41.1c-1.1-12.6-11.4-22.5-24.1-22.9l-25.1-0.8
    		c-5.201-14.6-12.201-28.399-20.9-41.2l13.699-20.6C879.4,378.638,877.4,364.438,867.699,356.238z M712.801,593.837
    		c-44.4,3.801-83.602-29.3-87.301-73.699c-3.801-44.4,29.301-83.601,73.699-87.301c44.4-3.8,83.602,29.301,87.301,73.7
    		C790.301,550.938,757.199,590.138,712.801,593.837z"/>
      <path
        d="M205,704.438c-12.6,1.3-22.3,11.899-22.4,24.6l-0.3,25.3c-0.2,12.7,9.2,23.5,21.8,25.101l18.6,2.399
    		c3.1,11.301,7.5,22.101,13.2,32.301l-12,14.8c-8,9.899-7.4,24.1,1.5,33.2l17.7,18.1c8.9,9.1,23.1,10.1,33.2,2.3l14.899-11.5
    		c10.5,6.2,21.601,11.101,33.2,14.5l2,19.2c1.3,12.6,11.9,22.3,24.6,22.4l25.301,0.3c12.699,0.2,23.5-9.2,25.1-21.8l2.3-18.2
    		c12.601-3.101,24.601-7.8,36-14l14,11.3c9.9,8,24.101,7.4,33.201-1.5l18.1-17.7c9.1-8.899,10.1-23.1,2.301-33.2L496.6,818.438
    		c6.6-11,11.701-22.7,15.201-35l16.6-1.7c12.6-1.3,22.299-11.9,22.4-24.6l0.299-25.301c0.201-12.699-9.199-23.5-21.799-25.1
    		l-16.201-2.1c-3.1-12.2-7.699-24-13.699-35l10.1-12.4c8-9.9,7.4-24.1-1.5-33.2l-17.699-18.1c-8.9-9.101-23.102-10.101-33.201-2.3
    		l-12.101,9.3c-11.399-6.9-23.6-12.2-36.399-15.8l-1.601-15.7c-1.3-12.601-11.899-22.3-24.6-22.4l-25.3-0.3
    		c-12.7-0.2-23.5,9.2-25.101,21.8l-2,15.601c-13.199,3.399-25.899,8.6-37.699,15.399l-12.5-10.2c-9.9-8-24.101-7.399-33.201,1.5
    		l-18.2,17.801c-9.1,8.899-10.1,23.1-2.3,33.199l10.7,13.801c-6.2,11-11.1,22.699-14.3,35L205,704.438z M368.3,675.837
    		c36.3,0.4,65.399,30.301,65,66.601c-0.4,36.3-30.301,65.399-66.601,65c-36.3-0.4-65.399-30.3-65-66.601
    		C302.1,704.538,332,675.438,368.3,675.837z"/>
    </symbol>
    <symbol id="icon-info" viewbox="0 0 23.625 23.625">
      <path
        fill="#333"
        d="M11.812,0C5.289,0,0,5.289,0,11.812s5.289,11.813,11.812,11.813s11.813-5.29,11.813-11.813
  		S18.335,0,11.812,0z M14.271,18.307c-0.608,0.24-1.092,0.422-1.455,0.548c-0.362,0.126-0.783,0.189-1.262,0.189
  		c-0.736,0-1.309-0.18-1.717-0.539s-0.611-0.814-0.611-1.367c0-0.215,0.015-0.435,0.045-0.659c0.031-0.224,0.08-0.476,0.147-0.759
  		l0.761-2.688c0.067-0.258,0.125-0.503,0.171-0.731c0.046-0.23,0.068-0.441,0.068-0.633c0-0.342-0.071-0.582-0.212-0.717
  		c-0.143-0.135-0.412-0.201-0.813-0.201c-0.196,0-0.398,0.029-0.605,0.09c-0.205,0.063-0.383,0.12-0.529,0.176l0.201-0.828
  		c0.498-0.203,0.975-0.377,1.43-0.521c0.455-0.146,0.885-0.218,1.29-0.218c0.731,0,1.295,0.178,1.692,0.53
  		c0.395,0.353,0.594,0.812,0.594,1.376c0,0.117-0.014,0.323-0.041,0.617c-0.027,0.295-0.078,0.564-0.152,0.811l-0.757,2.68
  		c-0.062,0.215-0.117,0.461-0.167,0.736c-0.049,0.275-0.073,0.485-0.073,0.626c0,0.356,0.079,0.599,0.239,0.728
  		c0.158,0.129,0.435,0.194,0.827,0.194c0.185,0,0.392-0.033,0.626-0.097c0.232-0.064,0.4-0.121,0.506-0.17L14.271,18.307z
  		 M14.137,7.429c-0.353,0.328-0.778,0.492-1.275,0.492c-0.496,0-0.924-0.164-1.28-0.492c-0.354-0.328-0.533-0.727-0.533-1.193
  		c0-0.465,0.18-0.865,0.533-1.196c0.356-0.332,0.784-0.497,1.28-0.497c0.497,0,0.923,0.165,1.275,0.497
  		c0.353,0.331,0.53,0.731,0.53,1.196C14.667,6.703,14.49,7.101,14.137,7.429z"/>
    </symbol>
    <symbol id="icon-emitter" viewBox="0 0 16 16">
      <path
        fill="#999"
        d="M4.4 1.3c-0.6 0.3-0.8 1.1-0.4 1.5 0.5-0.9 1.3-0.6 2.5 0.4 0.8 0.7 1.9 0.1 1.9 0.1s0.2 1.2 1.7 1.4c1.7 0.2 2.3-0.8 2.3-0.8s0.4 1 1.9 0.4c1.1-0.4 0.7-1.1 0.7-1.1s1 0 1-0.7c0-0.9-1.1-0.8-1.1-0.8s0.2-1-0.9-1.1c-1-0.1-1.3 0.5-1.3 0.5s-0.3-1.1-1.8-1.1c-1.4 0-1.9 1.3-1.9 1.3s-0.4-0.6-1.6-0.6c-0.9 0-1.3 0.7-1.3 0.7s-1.1-0.5-1.7-0.1z"></path>
      <path fill="#555" d="M12 12.1v-2.1l-4 2.1v-2.1h-2.4l-0.6-7h-2l-0.6 7h-2.4v6h16v-6l-4 2.1zM6 14h-4v-2h4v2z"></path>
    </symbol>
    <symbol id="icon-consumer" viewBox="0 0 16 16">
      <path
        fill="#999"
        d="m 6.5,3.2 c 0.8,0.7 1.9,0.1 1.9,0.1 0,0 0.2,1.2 1.7,1.4 1.7,0.2 2.3,-0.8 2.3,-0.8 0,0 0.4,1 1.9,0.4 1.1,-0.4 0.7,-1.1 0.7,-1.1 0,0 1,0 1,-0.7 0,-0.9 -1.1,-0.8 -1.1,-0.8 0,0 0.2,-1 -0.9,-1.1 C 13,0.5 12.7,1.1 12.7,1.1 12.7,1.1 12.4,0 10.9,0 9.5,0 9,1.3 9,1.3 9,1.3 8.6,0.7 7.4,0.7 6.5,0.7 6.1,1.4 6.1,1.4 5.1485651,2.1684512 4.935993,2.882987 6.5,3.2 Z"></path>
      <path fill="#555" d="M 12,12.1 V 10 L 8,12.1 V 10 c -8,0 0,0 -8,0 v 6 H 16 V 10 Z M 6,14 H 2 v -2 h 4 z"></path>
      <path fill="#555" d="M 10.5,5 V 7 H 9 l 2,2 2,-2 H 11.5 V 5 Z"></path>
    </symbol>

  </defs>
  <!-- define view locations for each icon -->
  <view id="icon-consumer-view" viewBox="0 0 16 16"/>
  <view id="icon-emitter-view" viewBox="0 17 16 16"/>
  <view id="icon-info-view" viewBox="0 33 23.625 23.625"/>
  <view id="icon-settings-view" viewBox="0 57 932.179 932.179"/>
  <view id="icon-play3-view" viewBox="17 0 32 32"/>

  <use xlink:href="#icon-consumer" width="16" height="16" x="0" y="0" id="icon-consumer-use"></use>
  <use xlink:href="#icon-emitter" width="16" height="16" x="0" y="17" id="icon-emitter-use"></use>
  <use xlink:href="#icon-info" width="23.625" height="23.625" x="0" y="33" id="icon-info-use"></use>
  <use xlink:href="#icon-settings" width="932.179" height="932.179" x="0" y="57" id="icon-settings-use"></use>
  <use xlink:href="#icon-play3" width="32" height="32" x="17" y="0" id="icon-play3-use"></use>
</svg>